<svg version="1.1" id="Layer_1" xmlns="http://www.w3.org/2000/svg" xmlns:xlink="http://www.w3.org/1999/xlink" x="0px" y="0px"
	 width="100%" viewBox="0 0 1200 1200" enable-background="new 0 0 1200 1200" xml:space="preserve">
<path fill="#000000" opacity="1.000000" stroke="none" 
	d="
M1088.000000,1201.000000 
	C725.333313,1201.000000 363.166656,1201.000000 1.000000,1201.000000 
	C1.000000,801.000000 1.000000,401.000000 1.000000,1.000000 
	C401.000000,1.000000 801.000000,1.000000 1201.000000,1.000000 
	C1201.000000,401.000000 1201.000000,801.000000 1201.000000,1201.000000 
	C1163.500000,1201.000000 1126.000000,1201.000000 1088.000000,1201.000000 
M357.998260,630.138062 
	C357.998840,622.638184 358.414948,615.108643 357.882843,607.646729 
	C357.353790,600.228516 356.911346,592.535156 354.610413,585.563293 
	C347.999908,565.533142 337.083069,548.245117 320.370941,534.723938 
	C300.926849,518.992493 278.735291,511.118958 254.027298,510.135895 
	C247.900803,509.892120 241.560028,510.715057 235.578156,512.140442 
	C225.946320,514.435608 215.877899,516.346558 207.169174,520.746216 
	C192.114029,528.351990 178.961533,538.880188 168.746964,552.700439 
	C155.793106,570.226929 149.294937,590.032837 148.103989,611.561890 
	C147.471939,622.987915 149.865143,634.090698 152.794388,645.222656 
	C157.337311,662.487000 166.404373,676.925659 178.334610,689.640869 
	C187.252014,699.144958 198.369675,706.036560 210.151611,711.451538 
	C217.226822,714.703247 224.800171,717.698181 232.429260,718.719055 
	C243.195068,720.159729 254.233078,720.130798 265.128387,719.816772 
	C271.153595,719.643127 277.319153,718.195557 283.082275,716.294189 
	C297.056091,711.683838 309.893005,704.987183 321.344727,695.409424 
	C333.975311,684.845703 343.643280,672.231750 349.864563,657.180359 
	C353.332184,648.791016 355.319366,639.789673 357.998260,630.138062 
M1059.000000,619.500000 
	C1059.000000,632.261108 1059.000000,645.022217 1059.000000,657.713989 
	C1064.976196,657.713989 1070.380737,657.713989 1075.999634,657.713989 
	C1075.999634,632.127014 1076.044312,606.825378 1075.959106,581.524109 
	C1075.943481,576.877197 1071.557617,571.151917 1066.707031,570.103516 
	C1057.155273,568.039185 1047.589966,567.123962 1039.925903,575.225037 
	C1034.123047,567.653564 1018.092712,566.935547 1010.779358,571.673523 
	C1004.954163,566.529724 998.316528,570.193481 992.275513,568.908691 
	C992.275513,598.964478 992.275513,628.362427 992.275513,657.722168 
	C997.960876,657.722168 1003.365662,657.722168 1009.000000,657.722168 
	C1009.000000,636.477600 1009.091675,615.509399 1008.966248,594.542542 
	C1008.888611,581.561279 1010.953918,584.216370 1019.651794,583.919617 
	C1023.729553,583.780518 1025.153931,584.879944 1025.099731,589.203369 
	C1024.866577,607.860291 1025.000000,626.521729 1025.000000,645.181519 
	C1025.000000,658.079102 1025.002441,657.909973 1037.723022,658.095886 
	C1041.916626,658.157166 1043.131836,656.922913 1043.091431,652.726379 
	C1042.890991,631.902649 1043.099731,611.075073 1042.925171,590.250916 
	C1042.885010,585.457092 1044.658691,583.496460 1049.350830,583.982178 
	C1050.504761,584.101562 1051.707275,584.158325 1052.843140,583.972473 
	C1057.701172,583.177917 1059.166382,585.417847 1059.063843,590.011902 
	C1058.852051,599.503723 1059.000000,609.003479 1059.000000,619.500000 
M432.907867,545.000549 
	C417.668091,545.000549 402.428345,545.000549 387.246826,545.000549 
	C387.246826,582.965576 387.246826,620.333496 387.246826,657.999268 
	C401.605682,657.999268 415.725616,658.216858 429.828247,657.820129 
	C432.731476,657.738403 435.781128,655.687378 438.395660,653.980835 
	C444.198120,650.193604 443.763550,643.535400 443.790436,638.069885 
	C443.921021,611.529480 443.254303,584.986206 443.054871,558.442505 
	C443.003754,551.640747 439.618195,547.585388 432.907867,545.000549 
M865.531494,677.979736 
	C866.687683,674.543396 868.818909,671.115234 868.847717,667.669434 
	C869.107910,636.539856 869.000000,605.407104 869.000000,574.275330 
	C869.000000,572.533875 869.000000,570.792480 869.000000,568.471619 
	C862.531616,570.340271 855.955566,566.558594 850.295776,571.637207 
	C844.507629,568.699951 844.507629,568.699951 832.324585,569.000000 
	C824.915283,569.182495 818.059753,575.846497 818.028503,583.233215 
	C817.944763,603.044006 817.922729,622.855835 818.051270,642.666199 
	C818.085815,647.992126 820.453735,652.331055 825.427124,654.761597 
	C832.721130,658.326416 840.233276,657.692383 847.787842,655.649109 
	C849.074341,655.301270 850.422058,655.179626 852.000000,654.909119 
	C852.000000,656.581360 852.020752,657.567993 851.996887,658.553650 
	C851.753235,668.600342 850.795532,669.114868 841.559875,669.014404 
	C834.794250,668.940857 828.027039,669.000000 821.000000,669.000000 
	C821.000000,672.481018 821.174500,675.461975 820.954346,678.413452 
	C820.698608,681.841614 821.876587,683.172485 825.461426,683.068176 
	C833.112976,682.845276 840.822815,683.519348 848.418030,682.828308 
	C854.041565,682.316589 860.292358,683.083374 865.531494,677.979736 
M623.003235,665.510986 
	C622.360291,669.721680 618.872681,668.855652 616.307068,668.924683 
	C608.560974,669.133118 600.805603,669.000000 593.000000,669.000000 
	C593.000000,672.534546 593.199463,675.383057 592.950684,678.191895 
	C592.622559,681.896606 593.975037,683.256165 597.749573,683.057068 
	C607.322510,682.552063 616.908997,682.281311 626.492859,682.014465 
	C636.288025,681.741699 640.996704,676.966736 640.998230,667.095642 
	C641.003113,635.933411 641.000000,604.771240 641.000000,573.609009 
	C641.000000,572.167725 641.000000,570.726379 641.000000,568.717163 
	C634.742981,570.210083 628.328247,566.761047 623.382568,570.543640 
	C617.393677,570.023376 611.510559,569.414062 605.612915,569.023621 
	C597.469727,568.484619 589.740051,575.865173 589.894226,584.467163 
	C590.234558,603.458374 590.244080,622.464355 589.890503,641.455139 
	C589.728882,650.136658 597.428101,657.445740 605.535767,656.979736 
	C611.608826,656.630554 617.671204,656.095093 624.347107,655.597290 
	C623.921753,658.550049 623.485046,661.582214 623.003235,665.510986 
M462.543243,654.025146 
	C466.789124,657.049377 471.381165,658.440735 476.716858,658.087158 
	C482.514282,657.702942 488.357361,657.949768 494.179596,658.010437 
	C506.364410,658.137329 511.720032,651.767151 511.915436,640.614929 
	C512.230164,622.652710 512.176208,604.678589 511.936859,586.714050 
	C511.782288,575.111694 506.104675,568.778748 494.009857,568.980164 
	C487.356995,569.090942 480.699493,568.918213 474.046326,569.019348 
	C464.373474,569.166382 458.054474,574.637939 458.019928,584.500427 
	C457.952332,603.798889 457.792572,623.101868 458.180328,642.392822 
	C458.255096,646.114380 460.660431,649.789185 462.543243,654.025146 
M784.317627,571.030945 
	C779.032654,570.353943 773.758118,569.576294 768.460083,569.024719 
	C761.352539,568.284912 753.066833,575.303833 753.026917,584.244446 
	C752.939880,603.729065 752.790466,623.217896 753.130615,642.696960 
	C753.229675,648.367859 755.005981,653.702026 761.473206,656.150208 
	C770.059998,659.400696 778.263611,658.877136 785.840759,655.356079 
	C791.535461,660.359375 797.897583,656.848389 803.796509,658.155457 
	C803.796509,628.163940 803.796509,598.774353 803.796509,569.000000 
	C800.316284,569.000000 796.984619,568.676086 793.749207,569.095215 
	C790.778992,569.479919 787.912537,570.665588 784.317627,571.030945 
M977.000000,581.526855 
	C977.000000,568.971741 977.000000,568.971863 964.481812,568.999939 
	C963.482117,569.002136 962.428284,568.801208 961.495605,569.052063 
	C960.189575,569.403198 958.973816,570.090149 957.719421,570.633484 
	C957.931152,571.773865 956.882629,571.408081 955.864624,570.971130 
	C948.440125,567.784241 941.029602,567.891235 933.654663,571.097961 
	C928.435364,573.367432 926.092957,577.720215 926.056152,583.087585 
	C925.916626,603.414246 925.912354,623.742981 926.054504,644.069580 
	C926.096008,650.009827 930.150269,655.832153 935.872131,657.039551 
	C943.825989,658.717896 951.631409,659.126526 957.589539,655.603271 
	C960.569092,656.725159 962.220581,657.710938 963.964722,657.918457 
	C966.593445,658.231140 969.309692,657.778992 971.947388,658.051636 
	C975.905579,658.460938 977.114502,657.003357 977.085022,652.997314 
	C976.911926,629.505249 977.000000,606.011292 977.000000,581.526855 
M543.000000,601.505554 
	C543.000000,599.173645 543.040283,596.840942 542.993103,594.509949 
	C542.768921,583.429077 542.799377,584.075256 553.579346,583.884949 
	C558.144409,583.804443 559.137634,585.376709 559.089172,589.627258 
	C558.880432,607.946716 559.000000,626.269958 559.000000,644.591797 
	C559.000000,658.700439 558.997437,658.637512 573.129333,658.055115 
	C575.826538,657.943909 577.077576,657.205750 577.031067,654.324646 
	C576.642639,630.263428 576.403870,606.199646 575.948853,582.139893 
	C575.839783,576.369446 572.040833,571.462341 566.425659,570.083557 
	C558.739380,568.196106 550.965698,567.617859 544.756348,571.459167 
	C542.570618,570.378052 541.221863,569.233704 539.775818,569.093628 
	C536.640503,568.790039 533.430237,569.252136 530.296936,568.938599 
	C526.004822,568.509094 524.963562,570.632751 524.971313,574.372681 
	C525.025635,600.522827 525.012695,626.673218 524.984802,652.823486 
	C524.981079,656.261536 525.814636,658.524719 529.993286,658.055115 
	C532.625000,657.759399 535.340759,657.775024 537.976501,658.052490 
	C541.972778,658.473206 543.131348,656.938599 543.084412,652.970703 
	C542.885437,636.150208 543.000000,619.326111 543.000000,601.505554 
M688.993835,657.999146 
	C695.573547,656.738159 701.033936,653.175964 701.583679,646.485474 
	C702.364380,636.985046 701.850769,627.319702 701.168884,617.776367 
	C700.636902,610.332581 694.314514,607.271606 687.633057,607.028137 
	C683.475647,606.876587 679.269348,607.319580 675.166687,606.822144 
	C673.768005,606.652588 671.593201,604.472839 671.534851,603.134827 
	C671.299194,597.729187 671.587830,592.279297 672.063354,586.879211 
	C672.182678,585.524414 673.524475,583.385437 674.631287,583.151184 
	C683.072449,581.364258 684.925354,583.008972 684.998901,591.690186 
	C685.007019,592.649597 685.000061,593.609131 685.000061,595.000000 
	C687.779053,595.000000 690.231750,595.028137 692.683655,594.995117 
	C703.263672,594.852722 702.169434,596.691162 701.914490,585.283142 
	C701.688965,575.194702 695.685425,568.979126 685.064087,568.998413 
	C679.902039,569.007812 674.739929,568.993103 669.577881,569.001770 
	C662.602295,569.013428 655.978516,572.749878 655.286316,579.430420 
	C654.214661,589.772583 654.637329,600.324829 655.149658,610.752441 
	C655.407227,615.994934 660.281311,619.642761 665.469299,619.994812 
	C670.709412,620.350403 675.948669,620.815125 681.195251,620.939636 
	C683.953064,621.005066 685.107788,621.915100 685.036743,624.740540 
	C684.906982,629.899414 685.051086,635.064697 684.958008,640.225159 
	C684.938660,641.297119 684.488647,643.236389 684.059875,643.287415 
	C680.648071,643.693604 677.137695,644.122009 673.791077,643.631836 
	C672.946716,643.508179 672.070129,640.086609 672.103516,638.196411 
	C672.180725,633.821411 671.151978,631.238342 666.023071,631.932922 
	C663.243225,632.309387 660.298523,631.629028 657.570251,632.157959 
	C656.215027,632.420715 654.287048,634.261047 654.181335,635.519104 
	C653.940796,638.381287 654.726074,641.319397 654.987183,644.236206 
	C655.635437,651.480286 658.150513,655.588135 665.445618,656.878662 
	C672.827209,658.184509 680.525452,657.700195 688.993835,657.999146 
M733.970093,555.932251 
	C732.774231,555.288330 731.638611,554.310303 730.367981,554.081177 
	C728.593079,553.761108 726.717285,553.988770 724.884766,554.001831 
	C714.842957,554.073547 716.075012,552.806213 716.002258,562.660156 
	C715.986755,564.751465 716.000000,566.843018 716.000000,569.305420 
	C712.916321,569.305420 710.503784,569.305420 708.132812,569.305420 
	C707.632141,583.607727 707.632141,583.607727 716.000000,584.350159 
	C716.000000,585.923401 716.000000,587.554626 716.000000,589.185791 
	C716.000000,606.845276 716.056274,624.504944 715.973572,642.164062 
	C715.938293,649.693970 720.734375,656.054932 727.103333,656.953125 
	C732.600342,657.728394 738.213684,657.774963 743.779541,657.847961 
	C744.506836,657.857544 745.834961,656.142883 745.895508,655.165527 
	C746.140015,651.220459 745.996887,647.251404 745.996887,642.995178 
	C743.947815,642.995178 742.305603,643.132202 740.693787,642.968933 
	C736.210754,642.515076 733.548035,641.138916 733.822083,635.432739 
	C734.404785,623.299072 734.000000,611.117859 734.000000,598.956177 
	C734.000000,594.024902 734.000000,589.093628 734.000000,584.203918 
	C746.495789,583.577209 746.495605,583.577209 746.000793,572.914001 
	C745.993042,572.747742 746.071655,572.506042 745.988281,572.425476 
	C744.793274,571.271057 743.718140,569.426086 742.336304,569.152832 
	C739.686584,568.628906 736.859802,569.000366 733.998047,569.000366 
	C733.998047,564.513000 733.998047,560.691040 733.970093,555.932251 
M918.996826,570.748291 
	C918.249695,570.166138 917.567505,569.202942 916.745056,569.062744 
	C910.829102,568.054260 906.495544,571.183228 901.915894,575.908020 
	C903.065735,569.306519 899.937500,568.437378 895.424316,568.957703 
	C893.287170,569.204041 891.072388,569.212830 888.938110,568.954468 
	C884.830017,568.457336 883.898560,570.268127 883.923096,574.115051 
	C884.075745,598.101562 884.000000,622.089539 884.000000,646.077026 
	C884.000000,658.018127 884.008179,657.752930 896.112976,658.125977 
	C901.206299,658.283020 902.150940,656.433533 902.095215,651.835815 
	C901.867004,633.015076 901.990723,614.189941 902.004639,595.366455 
	C902.010132,587.956482 903.443787,586.257751 910.602295,584.991821 
	C913.282959,584.517822 915.962158,584.035767 918.999817,583.493530 
	C918.999817,579.632935 918.999817,575.666443 918.996826,570.748291 
z"/>
<path fill="#FFFFFF" opacity="1.000000" stroke="none" 
	d="
M357.985962,630.601074 
	C355.319366,639.789673 353.332184,648.791016 349.864563,657.180359 
	C343.643280,672.231750 333.975311,684.845703 321.344727,695.409424 
	C309.893005,704.987183 297.056091,711.683838 283.082275,716.294189 
	C277.319153,718.195557 271.153595,719.643127 265.128387,719.816772 
	C254.233078,720.130798 243.195068,720.159729 232.429260,718.719055 
	C224.800171,717.698181 217.226822,714.703247 210.151611,711.451538 
	C198.369675,706.036560 187.252014,699.144958 178.334610,689.640869 
	C166.404373,676.925659 157.337311,662.487000 152.794388,645.222656 
	C149.865143,634.090698 147.471939,622.987915 148.103989,611.561890 
	C149.294937,590.032837 155.793106,570.226929 168.746964,552.700439 
	C178.961533,538.880188 192.114029,528.351990 207.169174,520.746216 
	C215.877899,516.346558 225.946320,514.435608 235.578156,512.140442 
	C241.560028,510.715057 247.900803,509.892120 254.027298,510.135895 
	C278.735291,511.118958 300.926849,518.992493 320.370941,534.723938 
	C337.083069,548.245117 347.999908,565.533142 354.610413,585.563293 
	C356.911346,592.535156 357.353790,600.228516 357.882843,607.646729 
	C358.414948,615.108643 357.998840,622.638184 357.985962,630.601074 
M188.546036,687.028503 
	C194.435028,690.852112 198.970886,697.010193 206.999954,698.269287 
	C206.999954,696.594299 206.999954,695.609558 206.999954,694.624817 
	C206.999985,671.804199 207.022583,648.983521 206.971725,626.163025 
	C206.965302,623.281433 207.812607,621.421631 210.927948,620.979431 
	C214.610016,620.456665 215.532501,623.030029 215.911255,625.649963 
	C216.288681,628.260864 215.667023,631.025146 216.110901,633.614624 
	C216.431961,635.487488 217.306427,637.972290 218.743652,638.833984 
	C229.212402,645.110535 239.811539,651.184448 250.570709,656.946716 
	C252.320175,657.883728 255.494949,657.747437 257.278809,656.770447 
	C267.706848,651.059326 277.969147,645.036255 288.139221,638.874084 
	C289.518158,638.038513 290.851746,635.844971 290.876648,634.259338 
	C291.091064,620.610962 290.999847,606.957764 290.999847,593.723145 
	C281.494415,588.236572 272.282257,583.016602 263.171295,577.625732 
	C257.196106,574.090332 252.037552,571.554993 244.920639,576.753357 
	C236.027863,583.248840 225.871048,588.013855 215.999359,593.675476 
	C215.999359,596.895935 216.588089,600.531921 215.780121,603.825317 
	C215.289932,605.823303 212.639709,607.291382 210.959854,608.997498 
	C209.640778,607.418518 208.054596,605.983337 207.099533,604.208496 
	C206.495285,603.085571 206.832260,601.456177 206.747375,600.058716 
	C205.831314,600.058716 205.229263,599.872253 204.855438,600.085571 
	C189.689545,608.741821 174.519730,617.392395 159.455887,626.223633 
	C158.531891,626.765320 157.848541,628.908447 158.105667,630.074341 
	C159.449585,636.168152 160.629318,642.374939 162.798553,648.194946 
	C168.259766,662.847412 176.486450,675.815735 188.546036,687.028503 
M273.025177,670.533936 
	C284.698914,677.203674 296.338623,683.934631 308.090576,690.463562 
	C309.516022,691.255432 312.186066,691.789124 313.184784,691.020447 
	C317.290802,687.860107 321.370850,684.490845 324.731415,680.573059 
	C332.183105,671.885864 338.433258,662.321289 342.705566,651.642273 
	C347.374603,639.971558 350.287476,627.953735 348.610718,614.584534 
	C342.413635,617.873413 336.530884,620.995483 330.787933,624.043274 
	C324.338623,619.720093 327.003143,616.236633 331.713379,613.680664 
	C336.783112,610.929504 341.824341,608.091492 346.636322,604.924194 
	C347.832367,604.136963 348.935608,601.750916 348.643738,600.413513 
	C347.384033,594.641296 345.838562,588.901672 343.944366,583.303345 
	C338.197723,566.319092 328.329773,552.102356 314.312927,540.906067 
	C310.026520,537.482178 305.279938,534.634460 300.132782,531.103516 
	C300.132782,565.177307 300.132782,597.964050 300.132782,631.668579 
	C303.196442,629.983765 305.722717,628.417358 308.402283,627.183899 
	C310.154236,626.377502 312.167389,625.558105 313.988220,625.701416 
	C315.067322,625.786377 317.049774,628.125000 316.808380,628.769653 
	C315.970917,631.006165 314.814087,633.739990 312.930450,634.867615 
	C300.826111,642.114624 288.480042,648.956909 276.248840,655.993713 
	C271.748779,658.582642 267.345001,661.338989 262.703247,664.135864 
	C266.419403,666.387451 269.433197,668.213440 273.025177,670.533936 
M165.030624,576.746643 
	C163.165802,582.866943 161.170975,588.951477 159.470184,595.117004 
	C157.501999,602.251770 155.991837,609.472046 157.493912,617.175903 
	C186.501678,600.426270 215.099609,583.913269 244.195343,567.112793 
	C241.834839,565.696228 239.790527,564.449097 237.727127,563.234497 
	C224.713211,555.573486 211.738647,547.843018 198.614380,540.375732 
	C197.223923,539.584595 194.381042,539.598877 193.169006,540.511047 
	C180.762024,549.849060 171.955582,562.088928 165.030624,576.746643 
M249.701782,519.000000 
	C233.944275,520.983032 218.401047,523.640442 203.835327,533.230347 
	C233.248322,550.194641 261.771149,566.645569 290.285187,583.091370 
	C290.630798,582.542480 290.923553,582.294434 290.924133,582.045715 
	C290.964203,564.569580 291.083496,547.091858 290.822998,529.619812 
	C290.799866,528.067810 288.568817,525.701782 286.894012,525.157349 
	C275.138184,521.335510 263.057831,519.105957 249.701782,519.000000 
M216.000000,657.570740 
	C216.000000,671.736877 215.988235,685.902954 216.012222,700.069092 
	C216.015991,702.290771 215.798294,703.916382 218.971466,705.217468 
	C231.505753,710.357178 244.384018,711.398438 257.749725,711.157715 
	C270.683441,710.924622 282.687775,707.977417 294.190063,702.365234 
	C296.906586,701.039856 299.656403,699.782593 303.374481,698.030518 
	C273.720673,680.939636 245.326340,664.574646 216.000000,647.672546 
	C216.000000,651.665955 216.000000,654.132751 216.000000,657.570740 
z"/>
<path fill="#FFFFFF" opacity="1.000000" stroke="none" 
	d="
M1059.000000,619.000000 
	C1059.000000,609.003479 1058.852051,599.503723 1059.063843,590.011902 
	C1059.166382,585.417847 1057.701172,583.177917 1052.843140,583.972473 
	C1051.707275,584.158325 1050.504761,584.101562 1049.350830,583.982178 
	C1044.658691,583.496460 1042.885010,585.457092 1042.925171,590.250916 
	C1043.099731,611.075073 1042.890991,631.902649 1043.091431,652.726379 
	C1043.131836,656.922913 1041.916626,658.157166 1037.723022,658.095886 
	C1025.002441,657.909973 1025.000000,658.079102 1025.000000,645.181519 
	C1025.000000,626.521729 1024.866577,607.860291 1025.099731,589.203369 
	C1025.153931,584.879944 1023.729553,583.780518 1019.651794,583.919617 
	C1010.953918,584.216370 1008.888611,581.561279 1008.966248,594.542542 
	C1009.091675,615.509399 1009.000000,636.477600 1009.000000,657.722168 
	C1003.365662,657.722168 997.960876,657.722168 992.275513,657.722168 
	C992.275513,628.362427 992.275513,598.964478 992.275513,568.908691 
	C998.316528,570.193481 1004.954163,566.529724 1010.779358,571.673523 
	C1018.092712,566.935547 1034.123047,567.653564 1039.925903,575.225037 
	C1047.589966,567.123962 1057.155273,568.039185 1066.707031,570.103516 
	C1071.557617,571.151917 1075.943481,576.877197 1075.959106,581.524109 
	C1076.044312,606.825378 1075.999634,632.127014 1075.999634,657.713989 
	C1070.380737,657.713989 1064.976196,657.713989 1059.000000,657.713989 
	C1059.000000,645.022217 1059.000000,632.261108 1059.000000,619.000000 
z"/>
<path fill="#FFFFFF" opacity="1.000000" stroke="none" 
	d="
M433.341309,545.004272 
	C439.618195,547.585388 443.003754,551.640747 443.054871,558.442505 
	C443.254303,584.986206 443.921021,611.529480 443.790436,638.069885 
	C443.763550,643.535400 444.198120,650.193604 438.395660,653.980835 
	C435.781128,655.687378 432.731476,657.738403 429.828247,657.820129 
	C415.725616,658.216858 401.605682,657.999268 387.246826,657.999268 
	C387.246826,620.333496 387.246826,582.965576 387.246826,545.000549 
	C402.428345,545.000549 417.668091,545.000549 433.341309,545.004272 
M404.000000,595.500000 
	C404.000000,611.591553 404.000000,627.683167 404.000000,644.469727 
	C410.636475,643.947998 416.697205,643.664978 422.683899,642.842896 
	C423.929779,642.671875 425.850494,640.512268 425.859711,639.257324 
	C426.046478,613.771790 426.046692,588.284119 425.862732,562.798523 
	C425.853424,561.512878 424.004730,559.343567 422.746887,559.126770 
	C418.422546,558.381287 413.978851,558.336426 409.582886,557.995544 
	C405.575745,557.684692 403.902985,559.462585 403.955505,563.516418 
	C404.089294,573.842773 404.000000,584.171936 404.000000,595.500000 
z"/>
<path fill="#FFFFFF" opacity="1.000000" stroke="none" 
	d="
M865.256104,678.255249 
	C860.292358,683.083374 854.041565,682.316589 848.418030,682.828308 
	C840.822815,683.519348 833.112976,682.845276 825.461426,683.068176 
	C821.876587,683.172485 820.698608,681.841614 820.954346,678.413452 
	C821.174500,675.461975 821.000000,672.481018 821.000000,669.000000 
	C828.027039,669.000000 834.794250,668.940857 841.559875,669.014404 
	C850.795532,669.114868 851.753235,668.600342 851.996887,658.553650 
	C852.020752,657.567993 852.000000,656.581360 852.000000,654.909119 
	C850.422058,655.179626 849.074341,655.301270 847.787842,655.649109 
	C840.233276,657.692383 832.721130,658.326416 825.427124,654.761597 
	C820.453735,652.331055 818.085815,647.992126 818.051270,642.666199 
	C817.922729,622.855835 817.944763,603.044006 818.028503,583.233215 
	C818.059753,575.846497 824.915283,569.182495 832.324585,569.000000 
	C844.507629,568.699951 844.507629,568.699951 850.295776,571.637207 
	C855.955566,566.558594 862.531616,570.340271 869.000000,568.471619 
	C869.000000,570.792480 869.000000,572.533875 869.000000,574.275330 
	C869.000000,605.407104 869.107910,636.539856 868.847717,667.669434 
	C868.818909,671.115234 866.687683,674.543396 865.256104,678.255249 
M852.000000,617.499146 
	C852.000000,610.172852 852.000854,602.846497 851.999817,595.520203 
	C851.998108,583.835205 851.810730,583.651978 840.273865,583.998962 
	C839.941162,584.008972 839.476685,583.858276 839.296326,584.024414 
	C838.162842,585.068542 836.154419,586.170166 836.141541,587.272766 
	C835.940796,604.420593 835.950134,621.572021 836.119629,638.720581 
	C836.130554,639.820740 837.737793,641.703003 838.788574,641.845032 
	C841.895264,642.265198 845.132019,642.264465 848.238525,641.843323 
	C849.281311,641.701965 850.784912,639.861633 850.883850,638.696411 
	C851.454163,631.980591 851.666443,625.234375 852.000000,617.499146 
z"/>
<path fill="#FFFFFF" opacity="1.000000" stroke="none" 
	d="
M623.025757,665.062683 
	C623.485046,661.582214 623.921753,658.550049 624.347107,655.597290 
	C617.671204,656.095093 611.608826,656.630554 605.535767,656.979736 
	C597.428101,657.445740 589.728882,650.136658 589.890503,641.455139 
	C590.244080,622.464355 590.234558,603.458374 589.894226,584.467163 
	C589.740051,575.865173 597.469727,568.484619 605.612915,569.023621 
	C611.510559,569.414062 617.393677,570.023376 623.382568,570.543640 
	C628.328247,566.761047 634.742981,570.210083 641.000000,568.717163 
	C641.000000,570.726379 641.000000,572.167725 641.000000,573.609009 
	C641.000000,604.771240 641.003113,635.933411 640.998230,667.095642 
	C640.996704,676.966736 636.288025,681.741699 626.492859,682.014465 
	C616.908997,682.281311 607.322510,682.552063 597.749573,683.057068 
	C593.975037,683.256165 592.622559,681.896606 592.950684,678.191895 
	C593.199463,675.383057 593.000000,672.534546 593.000000,669.000000 
	C600.805603,669.000000 608.560974,669.133118 616.307068,668.924683 
	C618.872681,668.855652 622.360291,669.721680 623.025757,665.062683 
M624.000000,615.499756 
	C624.000000,608.839478 624.000793,602.179260 623.999817,595.518982 
	C623.997986,583.835938 623.809265,583.651306 612.272705,583.998840 
	C611.940002,584.008850 611.475403,583.858276 611.295166,584.024414 
	C610.161987,585.068848 608.154419,586.170837 608.141479,587.273865 
	C607.940796,604.421631 607.950134,621.573059 608.119690,638.721558 
	C608.130615,639.821472 609.738525,641.703125 610.789551,641.845215 
	C613.896240,642.265259 617.132935,642.264526 620.239502,641.843323 
	C621.282043,641.701904 622.795837,639.855530 622.883789,638.696533 
	C623.444214,631.311890 623.666443,623.901428 624.000000,615.499756 
z"/>
<path fill="#FFFFFF" opacity="1.000000" stroke="none" 
	d="
M462.266968,653.755371 
	C460.660431,649.789185 458.255096,646.114380 458.180328,642.392822 
	C457.792572,623.101868 457.952332,603.798889 458.019928,584.500427 
	C458.054474,574.637939 464.373474,569.166382 474.046326,569.019348 
	C480.699493,568.918213 487.356995,569.090942 494.009857,568.980164 
	C506.104675,568.778748 511.782288,575.111694 511.936859,586.714050 
	C512.176208,604.678589 512.230164,622.652710 511.915436,640.614929 
	C511.720032,651.767151 506.364410,658.137329 494.179596,658.010437 
	C488.357361,657.949768 482.514282,657.702942 476.716858,658.087158 
	C471.381165,658.440735 466.789124,657.049377 462.266968,653.755371 
M494.000000,637.266235 
	C494.000000,621.137146 493.894348,605.006836 494.088623,588.880066 
	C494.127777,585.632385 493.151825,583.683777 490.044739,583.581360 
	C485.874756,583.443909 481.671631,583.692566 477.521881,584.139160 
	C476.785553,584.218506 475.692719,586.068726 475.688080,587.105347 
	C475.609406,604.669556 475.639587,622.234680 475.803223,639.798157 
	C475.813232,640.871216 477.066711,642.789734 477.859314,642.853638 
	C481.810181,643.171814 485.814606,642.792786 489.772797,643.061768 
	C493.623108,643.323425 494.340027,641.343262 494.000000,637.266235 
z"/>
<path fill="#FFFFFF" opacity="1.000000" stroke="none" 
	d="
M784.658997,571.264648 
	C787.912537,570.665588 790.778992,569.479919 793.749207,569.095215 
	C796.984619,568.676086 800.316284,569.000000 803.796509,569.000000 
	C803.796509,598.774353 803.796509,628.163940 803.796509,658.155457 
	C797.897583,656.848389 791.535461,660.359375 785.840759,655.356079 
	C778.263611,658.877136 770.059998,659.400696 761.473206,656.150208 
	C755.005981,653.702026 753.229675,648.367859 753.130615,642.696960 
	C752.790466,623.217896 752.939880,603.729065 753.026917,584.244446 
	C753.066833,575.303833 761.352539,568.284912 768.460083,569.024719 
	C773.758118,569.576294 779.032654,570.353943 784.658997,571.264648 
M771.000000,633.429077 
	C771.000488,635.594482 770.846558,637.775940 771.069946,639.918091 
	C771.173767,640.913269 771.765991,642.300781 772.553650,642.711975 
	C779.530396,646.353699 786.881348,642.005554 786.998657,634.289124 
	C787.008789,633.622986 787.000000,632.956604 787.000000,632.290344 
	C787.000000,619.797729 787.000366,607.305115 786.999878,594.812500 
	C786.999451,583.925537 786.974304,584.065125 776.076355,583.913696 
	C772.174133,583.859436 770.848877,584.924255 770.911804,588.972107 
	C771.136963,603.460083 771.000000,617.953613 771.000000,633.429077 
z"/>
<path fill="#FFFFFF" opacity="1.000000" stroke="none" 
	d="
M977.000000,582.022400 
	C977.000000,606.011292 976.911926,629.505249 977.085022,652.997314 
	C977.114502,657.003357 975.905579,658.460938 971.947388,658.051636 
	C969.309692,657.778992 966.593445,658.231140 963.964722,657.918457 
	C962.220581,657.710938 960.569092,656.725159 957.589539,655.603271 
	C951.631409,659.126526 943.825989,658.717896 935.872131,657.039551 
	C930.150269,655.832153 926.096008,650.009827 926.054504,644.069580 
	C925.912354,623.742981 925.916626,603.414246 926.056152,583.087585 
	C926.092957,577.720215 928.435364,573.367432 933.654663,571.097961 
	C941.029602,567.891235 948.440125,567.784241 955.864624,570.971130 
	C956.882629,571.408081 957.931152,571.773865 957.719421,570.633484 
	C958.973816,570.090149 960.189575,569.403198 961.495605,569.052063 
	C962.428284,568.801208 963.482117,569.002136 964.481812,568.999939 
	C977.000000,568.971863 977.000000,568.971741 977.000000,582.022400 
M949.592468,643.000000 
	C951.753723,642.999451 953.969788,643.283752 956.053894,642.882507 
	C957.152954,642.670898 958.686829,641.385986 958.873779,640.373230 
	C959.521484,636.864319 959.915161,633.264832 959.953796,629.695007 
	C960.077942,618.225098 960.398010,606.735535 959.895325,595.286316 
	C959.317749,582.132935 959.119934,584.189453 948.451233,583.962891 
	C944.366333,583.876160 942.927124,585.670288 942.954468,589.629700 
	C943.064392,605.588989 943.063904,621.549805 942.956177,637.509094 
	C942.928528,641.610718 944.256042,643.756897 949.592468,643.000000 
z"/>
<path fill="#FFFFFF" opacity="1.000000" stroke="none" 
	d="
M543.000000,602.004395 
	C543.000000,619.326111 542.885437,636.150208 543.084412,652.970703 
	C543.131348,656.938599 541.972778,658.473206 537.976501,658.052490 
	C535.340759,657.775024 532.625000,657.759399 529.993286,658.055115 
	C525.814636,658.524719 524.981079,656.261536 524.984802,652.823486 
	C525.012695,626.673218 525.025635,600.522827 524.971313,574.372681 
	C524.963562,570.632751 526.004822,568.509094 530.296936,568.938599 
	C533.430237,569.252136 536.640503,568.790039 539.775818,569.093628 
	C541.221863,569.233704 542.570618,570.378052 544.756348,571.459167 
	C550.965698,567.617859 558.739380,568.196106 566.425659,570.083557 
	C572.040833,571.462341 575.839783,576.369446 575.948853,582.139893 
	C576.403870,606.199646 576.642639,630.263428 577.031067,654.324646 
	C577.077576,657.205750 575.826538,657.943909 573.129333,658.055115 
	C558.997437,658.637512 559.000000,658.700439 559.000000,644.591797 
	C559.000000,626.269958 558.880432,607.946716 559.089172,589.627258 
	C559.137634,585.376709 558.144409,583.804443 553.579346,583.884949 
	C542.799377,584.075256 542.768921,583.429077 542.993103,594.509949 
	C543.040283,596.840942 543.000000,599.173645 543.000000,602.004395 
z"/>
<path fill="#FFFFFF" opacity="1.000000" stroke="none" 
	d="
M688.539429,657.999573 
	C680.525452,657.700195 672.827209,658.184509 665.445618,656.878662 
	C658.150513,655.588135 655.635437,651.480286 654.987183,644.236206 
	C654.726074,641.319397 653.940796,638.381287 654.181335,635.519104 
	C654.287048,634.261047 656.215027,632.420715 657.570251,632.157959 
	C660.298523,631.629028 663.243225,632.309387 666.023071,631.932922 
	C671.151978,631.238342 672.180725,633.821411 672.103516,638.196411 
	C672.070129,640.086609 672.946716,643.508179 673.791077,643.631836 
	C677.137695,644.122009 680.648071,643.693604 684.059875,643.287415 
	C684.488647,643.236389 684.938660,641.297119 684.958008,640.225159 
	C685.051086,635.064697 684.906982,629.899414 685.036743,624.740540 
	C685.107788,621.915100 683.953064,621.005066 681.195251,620.939636 
	C675.948669,620.815125 670.709412,620.350403 665.469299,619.994812 
	C660.281311,619.642761 655.407227,615.994934 655.149658,610.752441 
	C654.637329,600.324829 654.214661,589.772583 655.286316,579.430420 
	C655.978516,572.749878 662.602295,569.013428 669.577881,569.001770 
	C674.739929,568.993103 679.902039,569.007812 685.064087,568.998413 
	C695.685425,568.979126 701.688965,575.194702 701.914490,585.283142 
	C702.169434,596.691162 703.263672,594.852722 692.683655,594.995117 
	C690.231750,595.028137 687.779053,595.000000 685.000061,595.000000 
	C685.000061,593.609131 685.007019,592.649597 684.998901,591.690186 
	C684.925354,583.008972 683.072449,581.364258 674.631287,583.151184 
	C673.524475,583.385437 672.182678,585.524414 672.063354,586.879211 
	C671.587830,592.279297 671.299194,597.729187 671.534851,603.134827 
	C671.593201,604.472839 673.768005,606.652588 675.166687,606.822144 
	C679.269348,607.319580 683.475647,606.876587 687.633057,607.028137 
	C694.314514,607.271606 700.636902,610.332581 701.168884,617.776367 
	C701.850769,627.319702 702.364380,636.985046 701.583679,646.485474 
	C701.033936,653.175964 695.573547,656.738159 688.539429,657.999573 
z"/>
<path fill="#FFFFFF" opacity="1.000000" stroke="none" 
	d="
M733.984070,556.400635 
	C733.998047,560.691040 733.998047,564.513000 733.998047,569.000366 
	C736.859802,569.000366 739.686584,568.628906 742.336304,569.152832 
	C743.718140,569.426086 744.793274,571.271057 745.988281,572.425476 
	C746.071655,572.506042 745.993042,572.747742 746.000793,572.914001 
	C746.495605,583.577209 746.495789,583.577209 734.000000,584.203918 
	C734.000000,589.093628 734.000000,594.024902 734.000000,598.956177 
	C734.000000,611.117859 734.404785,623.299072 733.822083,635.432739 
	C733.548035,641.138916 736.210754,642.515076 740.693787,642.968933 
	C742.305603,643.132202 743.947815,642.995178 745.996887,642.995178 
	C745.996887,647.251404 746.140015,651.220459 745.895508,655.165527 
	C745.834961,656.142883 744.506836,657.857544 743.779541,657.847961 
	C738.213684,657.774963 732.600342,657.728394 727.103333,656.953125 
	C720.734375,656.054932 715.938293,649.693970 715.973572,642.164062 
	C716.056274,624.504944 716.000000,606.845276 716.000000,589.185791 
	C716.000000,587.554626 716.000000,585.923401 716.000000,584.350159 
	C707.632141,583.607727 707.632141,583.607727 708.132812,569.305420 
	C710.503784,569.305420 712.916321,569.305420 716.000000,569.305420 
	C716.000000,566.843018 715.986755,564.751465 716.002258,562.660156 
	C716.075012,552.806213 714.842957,554.073547 724.884766,554.001831 
	C726.717285,553.988770 728.593079,553.761108 730.367981,554.081177 
	C731.638611,554.310303 732.774231,555.288330 733.984070,556.400635 
z"/>
<path fill="#FFFFFF" opacity="1.000000" stroke="none" 
	d="
M918.998291,571.224121 
	C918.999817,575.666443 918.999817,579.632935 918.999817,583.493530 
	C915.962158,584.035767 913.282959,584.517822 910.602295,584.991821 
	C903.443787,586.257751 902.010132,587.956482 902.004639,595.366455 
	C901.990723,614.189941 901.867004,633.015076 902.095215,651.835815 
	C902.150940,656.433533 901.206299,658.283020 896.112976,658.125977 
	C884.008179,657.752930 884.000000,658.018127 884.000000,646.077026 
	C884.000000,622.089539 884.075745,598.101562 883.923096,574.115051 
	C883.898560,570.268127 884.830017,568.457336 888.938110,568.954468 
	C891.072388,569.212830 893.287170,569.204041 895.424316,568.957703 
	C899.937500,568.437378 903.065735,569.306519 901.915894,575.908020 
	C906.495544,571.183228 910.829102,568.054260 916.745056,569.062744 
	C917.567505,569.202942 918.249695,570.166138 918.998291,571.224121 
z"/>
<path fill="#000000" opacity="1.000000" stroke="none" 
	d="
M188.284943,686.783020 
	C176.486450,675.815735 168.259766,662.847412 162.798553,648.194946 
	C160.629318,642.374939 159.449585,636.168152 158.105667,630.074341 
	C157.848541,628.908447 158.531891,626.765320 159.455887,626.223633 
	C174.519730,617.392395 189.689545,608.741821 204.855438,600.085571 
	C205.229263,599.872253 205.831314,600.058716 206.747375,600.058716 
	C206.832260,601.456177 206.495285,603.085571 207.099533,604.208496 
	C208.054596,605.983337 209.640778,607.418518 210.959869,608.997498 
	C212.639709,607.291382 215.289932,605.823303 215.780121,603.825317 
	C216.588089,600.531921 215.999359,596.895935 215.999359,593.675476 
	C225.871048,588.013855 236.027863,583.248840 244.920639,576.753357 
	C252.037552,571.554993 257.196106,574.090332 263.171295,577.625732 
	C272.282257,583.016602 281.494415,588.236572 290.999847,593.723145 
	C290.999847,606.957764 291.091064,620.610962 290.876648,634.259338 
	C290.851746,635.844971 289.518158,638.038513 288.139221,638.874084 
	C277.969147,645.036255 267.706848,651.059326 257.278809,656.770447 
	C255.494949,657.747437 252.320175,657.883728 250.570709,656.946716 
	C239.811539,651.184448 229.212402,645.110535 218.743652,638.833984 
	C217.306427,637.972290 216.431961,635.487488 216.110901,633.614624 
	C215.667023,631.025146 216.288681,628.260864 215.911255,625.649963 
	C215.532501,623.030029 214.610016,620.456665 210.927948,620.979431 
	C207.812607,621.421631 206.965302,623.281433 206.971725,626.163025 
	C207.022583,648.983521 206.999985,671.804199 206.999954,694.624817 
	C206.999954,695.609558 206.999954,696.594299 206.999954,698.269287 
	C198.970886,697.010193 194.435028,690.852112 188.284943,686.783020 
z"/>
<path fill="#000000" opacity="1.000000" stroke="none" 
	d="
M272.736084,670.286743 
	C269.433197,668.213440 266.419403,666.387451 262.703247,664.135864 
	C267.345001,661.338989 271.748779,658.582642 276.248840,655.993713 
	C288.480042,648.956909 300.826111,642.114624 312.930450,634.867615 
	C314.814087,633.739990 315.970917,631.006165 316.808380,628.769653 
	C317.049774,628.125000 315.067322,625.786377 313.988220,625.701416 
	C312.167389,625.558105 310.154236,626.377502 308.402283,627.183899 
	C305.722717,628.417358 303.196442,629.983765 300.132782,631.668579 
	C300.132782,597.964050 300.132782,565.177307 300.132782,531.103516 
	C305.279938,534.634460 310.026520,537.482178 314.312927,540.906067 
	C328.329773,552.102356 338.197723,566.319092 343.944366,583.303345 
	C345.838562,588.901672 347.384033,594.641296 348.643738,600.413513 
	C348.935608,601.750916 347.832367,604.136963 346.636322,604.924194 
	C341.824341,608.091492 336.783112,610.929504 331.713379,613.680664 
	C327.003143,616.236633 324.338623,619.720093 330.787933,624.043274 
	C336.530884,620.995483 342.413635,617.873413 348.610718,614.584534 
	C350.287476,627.953735 347.374603,639.971558 342.705566,651.642273 
	C338.433258,662.321289 332.183105,671.885864 324.731415,680.573059 
	C321.370850,684.490845 317.290802,687.860107 313.184784,691.020447 
	C312.186066,691.789124 309.516022,691.255432 308.090576,690.463562 
	C296.338623,683.934631 284.698914,677.203674 272.736084,670.286743 
z"/>
<path fill="#000000" opacity="1.000000" stroke="none" 
	d="
M165.225983,576.403564 
	C171.955582,562.088928 180.762024,549.849060 193.169006,540.511047 
	C194.381042,539.598877 197.223923,539.584595 198.614380,540.375732 
	C211.738647,547.843018 224.713211,555.573486 237.727127,563.234497 
	C239.790527,564.449097 241.834839,565.696228 244.195343,567.112793 
	C215.099609,583.913269 186.501678,600.426270 157.493912,617.175903 
	C155.991837,609.472046 157.501999,602.251770 159.470184,595.117004 
	C161.170975,588.951477 163.165802,582.866943 165.225983,576.403564 
z"/>
<path fill="#000000" opacity="1.000000" stroke="none" 
	d="
M250.173157,519.000000 
	C263.057831,519.105957 275.138184,521.335510 286.894012,525.157349 
	C288.568817,525.701782 290.799866,528.067810 290.822998,529.619812 
	C291.083496,547.091858 290.964203,564.569580 290.924133,582.045715 
	C290.923553,582.294434 290.630798,582.542480 290.285187,583.091370 
	C261.771149,566.645569 233.248322,550.194641 203.835327,533.230347 
	C218.401047,523.640442 233.944275,520.983032 250.173157,519.000000 
z"/>
<path fill="#000000" opacity="1.000000" stroke="none" 
	d="
M216.000000,657.085083 
	C216.000000,654.132751 216.000000,651.665955 216.000000,647.672546 
	C245.326340,664.574646 273.720673,680.939636 303.374481,698.030518 
	C299.656403,699.782593 296.906586,701.039856 294.190063,702.365234 
	C282.687775,707.977417 270.683441,710.924622 257.749725,711.157715 
	C244.384018,711.398438 231.505753,710.357178 218.971466,705.217468 
	C215.798294,703.916382 216.015991,702.290771 216.012222,700.069092 
	C215.988235,685.902954 216.000000,671.736877 216.000000,657.085083 
z"/>
<path fill="#000000" opacity="1.000000" stroke="none" 
	d="
M404.000000,595.000000 
	C404.000000,584.171936 404.089294,573.842773 403.955505,563.516418 
	C403.902985,559.462585 405.575745,557.684692 409.582886,557.995544 
	C413.978851,558.336426 418.422546,558.381287 422.746887,559.126770 
	C424.004730,559.343567 425.853424,561.512878 425.862732,562.798523 
	C426.046692,588.284119 426.046478,613.771790 425.859711,639.257324 
	C425.850494,640.512268 423.929779,642.671875 422.683899,642.842896 
	C416.697205,643.664978 410.636475,643.947998 404.000000,644.469727 
	C404.000000,627.683167 404.000000,611.591553 404.000000,595.000000 
z"/>
<path fill="#000000" opacity="1.000000" stroke="none" 
	d="
M852.000000,617.998779 
	C851.666443,625.234375 851.454163,631.980591 850.883850,638.696411 
	C850.784912,639.861633 849.281311,641.701965 848.238525,641.843323 
	C845.132019,642.264465 841.895264,642.265198 838.788574,641.845032 
	C837.737793,641.703003 836.130554,639.820740 836.119629,638.720581 
	C835.950134,621.572021 835.940796,604.420593 836.141541,587.272766 
	C836.154419,586.170166 838.162842,585.068542 839.296326,584.024414 
	C839.476685,583.858276 839.941162,584.008972 840.273865,583.998962 
	C851.810730,583.651978 851.998108,583.835205 851.999817,595.520203 
	C852.000854,602.846497 852.000000,610.172852 852.000000,617.998779 
z"/>
<path fill="#000000" opacity="1.000000" stroke="none" 
	d="
M624.000000,615.999634 
	C623.666443,623.901428 623.444214,631.311890 622.883789,638.696533 
	C622.795837,639.855530 621.282043,641.701904 620.239502,641.843323 
	C617.132935,642.264526 613.896240,642.265259 610.789551,641.845215 
	C609.738525,641.703125 608.130615,639.821472 608.119690,638.721558 
	C607.950134,621.573059 607.940796,604.421631 608.141479,587.273865 
	C608.154419,586.170837 610.161987,585.068848 611.295166,584.024414 
	C611.475403,583.858276 611.940002,584.008850 612.272705,583.998840 
	C623.809265,583.651306 623.997986,583.835938 623.999817,595.518982 
	C624.000793,602.179260 624.000000,608.839478 624.000000,615.999634 
z"/>
<path fill="#000000" opacity="1.000000" stroke="none" 
	d="
M494.000000,637.735901 
	C494.340027,641.343262 493.623108,643.323425 489.772797,643.061768 
	C485.814606,642.792786 481.810181,643.171814 477.859314,642.853638 
	C477.066711,642.789734 475.813232,640.871216 475.803223,639.798157 
	C475.639587,622.234680 475.609406,604.669556 475.688080,587.105347 
	C475.692719,586.068726 476.785553,584.218506 477.521881,584.139160 
	C481.671631,583.692566 485.874756,583.443909 490.044739,583.581360 
	C493.151825,583.683777 494.127777,585.632385 494.088623,588.880066 
	C493.894348,605.006836 494.000000,621.137146 494.000000,637.735901 
z"/>
<path fill="#000000" opacity="1.000000" stroke="none" 
	d="
M771.000000,632.937073 
	C771.000000,617.953613 771.136963,603.460083 770.911804,588.972107 
	C770.848877,584.924255 772.174133,583.859436 776.076355,583.913696 
	C786.974304,584.065125 786.999451,583.925537 786.999878,594.812500 
	C787.000366,607.305115 787.000000,619.797729 787.000000,632.290344 
	C787.000000,632.956604 787.008789,633.622986 786.998657,634.289124 
	C786.881348,642.005554 779.530396,646.353699 772.553650,642.711975 
	C771.765991,642.300781 771.173767,640.913269 771.069946,639.918091 
	C770.846558,637.775940 771.000488,635.594482 771.000000,632.937073 
z"/>
<path fill="#000000" opacity="1.000000" stroke="none" 
	d="
M949.122803,643.000000 
	C944.256042,643.756897 942.928528,641.610718 942.956177,637.509094 
	C943.063904,621.549805 943.064392,605.588989 942.954468,589.629700 
	C942.927124,585.670288 944.366333,583.876160 948.451233,583.962891 
	C959.119934,584.189453 959.317749,582.132935 959.895325,595.286316 
	C960.398010,606.735535 960.077942,618.225098 959.953796,629.695007 
	C959.915161,633.264832 959.521484,636.864319 958.873779,640.373230 
	C958.686829,641.385986 957.152954,642.670898 956.053894,642.882507 
	C953.969788,643.283752 951.753723,642.999451 949.122803,643.000000 
z"/>
</svg>